# xmcd
#
# Track frame offsets: 
#        150
#        25436
#        40086
#        60276
#        85380
#        108877
#        120765
#        143322
#        161293
#        184297
#        205598
#        228136
#        253536
#        276566
#        300610
#
# Disc length: 4271 seconds
#
# Revision: 0
# Processed by: cddbd v1.5.2PL0 Copyright (c) Steve Scherf et al.
# Submitted via: ExactAudioCopy v1.0b3
#
DISCID=b510ad0f
DTITLE=Mississippi Slim - You Can't Lose The Blues
DYEAR=2008
DGENRE=Blues
TTITLE0=You Can't Lose the Blues
TTITLE1=Mississippi Boy
TTITLE2=Take Your Finger Out of It
TTITLE3=I've Got to Leave You Alone
TTITLE4=They Call Me Mississippi Slim
TTITLE5=Thank You Baby
TTITLE6=I Was Checking Out
TTITLE7=Groove Me Baby
TTITLE8=Sitting Here
TTITLE9=Haven't I Been Good to You
TTITLE10=Cotton Candy
TTITLE11=Player Haters
TTITLE12=If It Don't Fit
TTITLE13=I Miss You
TTITLE14=Dirty Bird
EXTD=
EXTT0=
EXTT1=
EXTT2=
EXTT3=
EXTT4=
EXTT5=
EXTT6=
EXTT7=
EXTT8=
EXTT9=
EXTT10=
EXTT11=
EXTT12=
EXTT13=
EXTT14=
PLAYORDER=
